<svg width="54" height="55" viewBox="0 0 54 55" fill="none" xmlns="http://www.w3.org/2000/svg">
<path d="M27.5983 12.1973H27.4075C23.1581 12.1973 19.7018 15.1765 19.7018 18.8403V25.9137C18.3766 27.3468 17.5789 29.155 17.5789 31.1226V35.4596C17.5789 40.0942 21.974 43.8647 27.3784 43.8647H27.6285C33.0318 43.8647 37.4281 40.0948 37.4281 35.4596V31.1226C37.4281 29.155 36.628 27.3456 35.3029 25.9113V18.8403C35.3029 15.1765 31.8465 12.1973 27.5983 12.1973ZM21.7174 18.8403C21.7174 16.2878 24.2711 14.2123 27.4081 14.2123H27.5989C30.7358 14.2123 33.2884 16.2878 33.2884 18.8403V24.2726C31.6877 23.2971 29.7372 22.7169 27.6291 22.7169H27.379C25.2686 22.7169 23.3182 23.2971 21.7174 24.275V18.8403ZM35.4131 31.1226V35.4596C35.4131 38.983 31.9206 41.8491 27.6285 41.8491H27.3784C23.0852 41.8491 19.5927 38.983 19.5927 35.4596V31.1226C19.5927 27.5992 23.0852 24.732 27.3784 24.732H27.6285C31.9206 24.732 35.4131 27.5992 35.4131 31.1226Z" fill="#ADADAD"/>
<path d="M28.5092 30.7711H26.4941V36.4405H28.5092V30.7711Z" fill="#ADADAD"/>
</svg>
