<svg width="24" height="24" viewBox="0 0 24 24" fill="none" xmlns="http://www.w3.org/2000/svg">
<path fill-rule="evenodd" clip-rule="evenodd" d="M19.3576 2.00602C19.0417 1.82118 18.6378 1.93088 18.4555 2.25103L16.4358 5.79795C15.0597 5.15388 13.6354 4.82456 12.1935 4.82456C8.31935 4.82456 4.57161 7.2035 1.54944 11.6757L1.53745 11.6933L1.52697 11.7085C1.4263 11.8526 1.42373 12.0221 1.52647 12.1646C3.75655 15.4771 6.38442 17.6465 9.16742 18.5584L7.55851 21.3819C7.37612 21.7021 7.48434 22.1114 7.8002 22.2963L8.08617 22.4636C8.40203 22.6484 8.80591 22.5388 8.98829 22.2186L19.8852 3.08774C20.0676 2.76759 19.9594 2.35822 19.6435 2.17337L19.3576 2.00602ZM15.5597 7.33608C14.4397 6.84301 13.3089 6.60268 12.1935 6.60268C9.37858 6.60268 6.46458 8.13355 3.87661 11.3949C3.62817 11.708 3.62817 12.1644 3.87661 12.4775C5.81654 14.9223 7.93961 16.395 10.0669 16.9794L11.1792 15.0264C9.90854 14.6211 8.85781 13.4906 8.85781 11.938C8.85781 9.97397 10.3631 8.38167 12.2197 8.38167C13.0768 8.38167 13.8589 8.72095 14.4528 9.2794L15.5597 7.33608ZM13.5347 10.8912C13.2488 10.4479 12.7787 10.1598 12.2197 10.1598C11.2907 10.1598 10.5308 10.9546 10.5308 11.9366C10.5308 12.5856 11.2268 13.344 12.1012 13.4078L13.5347 10.8912Z" fill="#ADADAD"/>
<path d="M12.7493 19.0324C16.4176 18.8167 19.9461 16.4673 22.8195 12.2262C22.8796 12.1374 22.9132 12.0455 22.9132 11.9362C22.9132 11.8321 22.8844 11.745 22.8271 11.6604C21.7228 10.0277 20.5214 8.67486 19.2524 7.61552L18.378 9.15063C19.1067 9.77808 19.8202 10.5249 20.5106 11.3949C20.7591 11.708 20.7591 12.1644 20.5106 12.4775C18.4289 15.101 16.1362 16.6052 13.8539 17.0933L12.7493 19.0324Z" fill="#ADADAD"/>
</svg>
