<svg width="29" height="31" viewBox="0 0 29 31" fill="none" xmlns="http://www.w3.org/2000/svg">
<path d="M26.8244 10.0631C27.5179 10.0631 28.0823 9.49869 28.0823 8.80518V5.03146C28.0823 4.33795 27.5179 3.77356 26.8244 3.77356H24.9375L24.9378 1.8869C24.9378 0.846425 24.0914 1.52588e-05 23.0509 1.52588e-05H2.29559C1.25535 1.52588e-05 0.408936 0.846367 0.408936 1.8869V28.3024C0.408936 29.3429 1.25529 30.1893 2.29583 30.1893H23.0505C24.091 30.1893 24.9374 29.3429 24.9374 28.3024V26.4155H26.8243C27.5178 26.4155 28.0822 25.8511 28.0822 25.1576V21.3839C28.0822 20.6904 27.5178 20.126 26.8243 20.126H24.9374V18.2391H26.8243C27.5178 18.2391 28.0822 17.6747 28.0822 16.9812V13.2075C28.0822 12.514 27.5178 11.9496 26.8243 11.9496H24.9374V10.0627L26.8244 10.0631ZM26.8244 5.03146L26.8251 8.80518H24.9378V5.03146H26.8244ZM2.29583 28.931C1.94885 28.931 1.66685 28.6491 1.66685 28.302L1.66708 1.88714C1.66708 1.54015 1.94905 1.25815 2.29606 1.25815H2.92504V28.9316L2.29583 28.931ZM4.18272 28.931V1.25815H6.06962V28.9316L4.18272 28.931ZM26.8244 21.3838L26.8251 25.1575H24.9378V21.3838H26.8244ZM26.8244 13.2076L26.8251 16.9814H24.9378V13.2076H26.8244ZM23.6798 11.9497V28.3021C23.6798 28.6491 23.3978 28.9311 23.0508 28.9311H7.32741V1.25821H23.0508C23.3978 1.25821 23.6798 1.54018 23.6798 1.88719V11.9497Z" fill="#ADADAD"/>
<path d="M18.1242 14.522C17.8977 14.4182 17.6322 14.4588 17.4463 14.6247C16.3517 15.5963 14.6553 15.5963 13.5608 14.6247C13.3742 14.4588 13.1086 14.4182 12.8828 14.522C11.058 15.3524 9.55507 17.5481 9.22697 19.8612C9.17359 20.2401 9.28789 20.6252 9.54134 20.9176C9.7989 21.2135 10.171 21.3837 10.5622 21.3837H20.4443C20.8355 21.3837 21.2078 21.2135 21.4651 20.9176C21.7188 20.6252 21.8331 20.2401 21.7795 19.8607C21.4517 17.5481 19.9487 15.3524 18.1239 14.522H18.1242ZM20.4445 20.1258H10.5624C10.5262 20.1258 10.5022 20.1048 10.4728 20.0373C10.7185 18.3039 11.7848 16.6069 13.0707 15.841C14.4993 16.8717 16.5077 16.8717 17.9362 15.841C19.2224 16.6075 20.2874 18.3082 20.5152 20.0925C20.505 20.105 20.481 20.1258 20.4447 20.1258L20.4445 20.1258Z" fill="#ADADAD"/>
<path d="M12.988 11.3205C12.988 12.708 14.1164 13.8363 15.5038 13.8363C16.8913 13.8363 18.0197 12.708 18.0197 11.3205C18.0197 9.93296 16.8913 8.80464 15.5038 8.80464C14.1164 8.80487 12.988 9.93319 12.988 11.3205ZM16.7618 11.3205C16.7618 12.014 16.1974 12.5784 15.5038 12.5784C14.8103 12.5784 14.2459 12.014 14.2459 11.3205C14.2459 10.6269 14.8103 10.0625 15.5038 10.0625C16.1971 10.0628 16.7618 10.6272 16.7618 11.3205Z" fill="#ADADAD"/>
<path d="M11.1009 4.40236H19.9061C20.2537 4.40236 20.5351 4.12107 20.5351 3.77338C20.5351 3.42568 20.2538 3.14439 19.9061 3.14439H11.1009C10.7532 3.14439 10.4719 3.42568 10.4719 3.77338C10.4719 4.12107 10.7534 4.40236 11.1009 4.40236Z" fill="#ADADAD"/>
<path d="M11.1009 7.54715H19.9061C20.2537 7.54715 20.5351 7.26586 20.5351 6.91817C20.5351 6.57047 20.2538 6.28918 19.9061 6.28918H11.1009C10.7532 6.28918 10.4719 6.57047 10.4719 6.91817C10.4719 7.26586 10.7534 7.54715 11.1009 7.54715Z" fill="#ADADAD"/>
<path d="M19.9061 24.5285H11.1009C10.7532 24.5285 10.4719 24.8098 10.4719 25.1575C10.4719 25.5052 10.7532 25.7865 11.1009 25.7865H19.9061C20.2537 25.7865 20.5351 25.5052 20.5351 25.1575C20.5351 24.8098 20.2538 24.5285 19.9061 24.5285Z" fill="#ADADAD"/>
</svg>
