<svg width="29" height="34" viewBox="0 0 29 34" fill="none" xmlns="http://www.w3.org/2000/svg">
<path d="M2.49314 28.4295H10.2222L8.92885 30.8111H8.24353C7.54216 30.8111 6.97147 31.3815 6.97147 32.0833C6.97147 32.7847 7.54214 33.3551 8.24353 33.3551H20.7542C21.4556 33.3551 22.0263 32.7847 22.0263 32.0833C22.0263 31.3814 21.4556 30.8111 20.7542 30.8111H20.0689L18.7755 28.4295H26.5046C27.8797 28.4295 28.9985 27.3343 28.9985 25.9876C28.9987 23.2125 29 10.3875 29 10.3066C29 8.83811 27.8167 7.64356 26.3624 7.64356H25.4086V1.96464C25.4086 0.8815 24.5301 0 23.45 0H5.54968C4.46955 0 3.59107 0.8815 3.59107 1.96464V7.64356H2.63913C1.18475 7.64356 0.00175596 8.83811 0.00175596 10.3066V10.4317V10.527V10.5077C0.00175596 11.264 0.00125425 14.4844 4.21904e-08 25.9878C-0.000250852 27.3343 1.11852 28.4295 2.49366 28.4295L2.49314 28.4295ZM20.7544 31.5927C21.0248 31.5927 21.2448 31.8127 21.2448 32.0834C21.2448 32.3535 21.0248 32.5735 20.7544 32.5735H8.24372C7.97331 32.5735 7.75332 32.3535 7.75332 32.0834C7.75332 31.8127 7.97331 31.5927 8.24372 31.5927H20.7544ZM19.1793 30.8111H9.8185L11.094 28.4627H17.9042L19.1793 30.8111ZM4.37294 1.96438C4.37294 1.31246 4.90073 0.781643 5.54965 0.781643H23.45C24.0989 0.781643 24.6267 1.31243 24.6267 1.96438V4.0963H4.37282L4.37294 1.96438ZM4.37294 4.8782H24.6268V19.3269C24.6268 19.9793 24.099 20.5102 23.4501 20.5102H5.54978C4.90087 20.5102 4.37307 19.9794 4.37307 19.3269L4.37294 4.8782ZM0.783371 10.3062C0.783371 9.26901 1.61568 8.42514 2.6391 8.42514H3.5913V19.3265C3.5913 20.4102 4.46978 21.2917 5.5499 21.2917H23.4503C24.5304 21.2917 25.4089 20.4102 25.4089 19.3265L25.4086 8.42514H26.3623C27.3856 8.42514 28.2183 9.26901 28.2183 10.3062V22.9511H0.78312L0.783371 10.3062ZM0.781615 23.7352H28.2168V25.9872C28.2168 26.9028 27.4487 27.6476 26.5046 27.6476H2.49337C1.5492 27.6476 0.781102 26.903 0.781102 25.9872L0.781615 23.7352Z" fill="#808080"/>
<path d="M14.4992 26.6552C15.0257 26.6552 15.4541 26.223 15.4541 25.6917C15.4541 25.161 15.0257 24.7288 14.4992 24.7288C13.9726 24.7288 13.5442 25.161 13.5442 25.6917C13.5442 26.2233 13.9726 26.6552 14.4992 26.6552ZM14.4992 25.1351C14.8014 25.1351 15.0475 25.385 15.0475 25.692C15.0475 25.9993 14.8014 26.2494 14.4992 26.2494C14.1969 26.2494 13.9508 25.9995 13.9508 25.692C13.9508 25.385 14.1969 25.1351 14.4992 25.1351Z" fill="#808080"/>
<path d="M6.94135 1.55322C6.45421 1.55322 6.05786 1.95081 6.05786 2.43973C6.05786 2.92838 6.45445 3.32573 6.94135 3.32573C7.42874 3.32573 7.8251 2.92814 7.8251 2.43973C7.8251 1.95058 7.42851 1.55322 6.94135 1.55322ZM6.94135 2.91956C6.67846 2.91956 6.46449 2.70433 6.46449 2.43969C6.46449 2.17504 6.67846 1.95931 6.94135 1.95931C7.20449 1.95931 7.41846 2.17504 7.41846 2.43969C7.41846 2.70433 7.20449 2.91956 6.94135 2.91956Z" fill="#808080"/>
<path d="M9.41817 1.55322C8.93078 1.55322 8.53442 1.95081 8.53442 2.43973C8.53442 2.92838 8.93101 3.32573 9.41817 3.32573C9.90531 3.32573 10.3017 2.92814 10.3017 2.43973C10.3017 1.95058 9.90507 1.55322 9.41817 1.55322ZM9.41817 2.91956C9.15503 2.91956 8.94106 2.70433 8.94106 2.43969C8.94106 2.17504 9.15503 1.95931 9.41817 1.95931C9.68106 1.95931 9.89503 2.17504 9.89503 2.43969C9.89503 2.70433 9.68106 2.91956 9.41817 2.91956Z" fill="#808080"/>
<path d="M11.8945 1.55322C11.4073 1.55322 11.011 1.95081 11.011 2.43973C11.011 2.92838 11.4076 3.32573 11.8945 3.32573C12.3819 3.32573 12.7782 2.92814 12.7782 2.43973C12.7782 1.95058 12.3816 1.55322 11.8945 1.55322ZM11.8945 2.91956C11.6316 2.91956 11.4176 2.70433 11.4176 2.43969C11.4176 2.17504 11.6316 1.95931 11.8945 1.95931C12.1576 1.95931 12.3716 2.17504 12.3716 2.43969C12.3716 2.70433 12.1576 2.91956 11.8945 2.91956Z" fill="#808080"/>
<path d="M6.17536 11.6812H13.0998C13.212 11.6812 13.3033 11.5907 13.3033 11.478V6.79801C13.3033 6.68563 13.2122 6.59482 13.0998 6.59482L6.17536 6.59532C6.06323 6.59532 5.97192 6.68588 5.97192 6.79851V11.4785C5.97192 11.5907 6.06323 11.6812 6.17536 11.6812V11.6812ZM6.3788 7.00145H12.8968V11.2751H6.3788V7.00145Z" fill="#808080"/>
<path d="M14.691 7.06406H22.824C22.9361 7.06406 23.0274 6.9735 23.0274 6.86087C23.0274 6.74849 22.9364 6.65768 22.824 6.65768L14.691 6.65794C14.5789 6.65794 14.4875 6.74849 14.4875 6.86112C14.4875 6.9735 14.5789 7.06406 14.691 7.06406V7.06406Z" fill="#808080"/>
<path d="M14.691 9.26157H22.824C22.9361 9.26157 23.0274 9.17101 23.0274 9.05838C23.0274 8.946 22.9364 8.85519 22.824 8.85519H14.691C14.5789 8.85519 14.4875 8.94575 14.4875 9.05838C14.4875 9.17076 14.5789 9.26157 14.691 9.26157Z" fill="#808080"/>
<path d="M14.691 11.4584H22.824C22.9361 11.4584 23.0274 11.3679 23.0274 11.2552C23.0274 11.1429 22.9364 11.0521 22.824 11.0521L14.691 11.0523C14.5789 11.0523 14.4875 11.1429 14.4875 11.2555C14.4875 11.3679 14.5789 11.4584 14.691 11.4584Z" fill="#808080"/>
<path d="M22.8242 13.1357H6.26081C6.14868 13.1357 6.05737 13.2263 6.05737 13.3389C6.05737 13.4513 6.14843 13.5421 6.26081 13.5421H22.8242C22.9363 13.5421 23.0276 13.4516 23.0276 13.3389C23.0276 13.2263 22.9363 13.1357 22.8242 13.1357Z" fill="#808080"/>
<path d="M22.8242 15.5015H6.26081C6.14868 15.5015 6.05737 15.592 6.05737 15.7047C6.05737 15.817 6.14843 15.9078 6.26081 15.9078H22.8242C22.9363 15.9078 23.0276 15.8173 23.0276 15.7047C23.0276 15.592 22.9363 15.5015 22.8242 15.5015Z" fill="#808080"/>
<path d="M22.8242 17.8665H6.26081C6.14868 17.8665 6.05737 17.9571 6.05737 18.0697C6.05737 18.1821 6.14843 18.2729 6.26081 18.2729H22.8242C22.9363 18.2729 23.0276 18.1823 23.0276 18.0697C23.0276 17.9571 22.9363 17.8665 22.8242 17.8665Z" fill="#808080"/>
</svg>
