<svg width="414" height="42" viewBox="0 0 414 42" fill="none" xmlns="http://www.w3.org/2000/svg">
<path d="M3.82031 32V2.23438H0.257812V32H3.82031ZM17.7422 8.70312C15.7109 8.73438 14.4141 9.42188 13.8516 10.7656L13.5703 9.03125H10.5234L10.5703 32H14.0391L13.9922 11.9844C14.0547 11.7344 14.1953 11.5938 14.4141 11.5625H22.3359C22.5859 11.625 22.7266 11.7656 22.7578 11.9844V32H26.2734V13.4375C26.2734 11.0312 25.4453 9.5625 23.7891 9.03125C23.1016 8.8125 22.2266 8.70312 21.1641 8.70312H17.7422ZM43.0078 0.359375V8.9375L36.1641 8.89062C33.5703 8.85938 31.9453 9.53125 31.2891 10.9062C30.9453 11.625 30.7734 12.5625 30.7734 13.7188V27.5938C30.7734 30 31.6016 31.4688 33.2578 32C33.9453 32.2188 34.8203 32.3281 35.8828 32.3281H39.2578C41.4141 32.2969 42.6953 31.4844 43.1016 29.8906L43.4766 32H46.5234V0.359375H43.0078ZM43.0078 29.0469C43.0078 29.3281 42.8672 29.4688 42.5859 29.4688H34.6641C34.4141 29.4062 34.2734 29.2656 34.2422 29.0469V12.125C34.3047 11.875 34.4453 11.7344 34.6641 11.7031L43.0078 11.7969V29.0469ZM66.5391 32.2344V29.3281H55.4297C55.1797 29.2656 55.0391 29.125 55.0078 28.9062V22.9531H67.1016V13.625C67.1016 11.2188 66.3359 9.71875 64.8047 9.125C64.0234 8.84375 62.9922 8.70312 61.7109 8.70312H56.6953C54.2266 8.70312 52.6797 9.32812 52.0547 10.5781C51.6797 11.2969 51.4922 12.3125 51.4922 13.625V27.1719C51.4922 29.6719 52.3516 31.2188 54.0703 31.8125C54.8828 32.0938 55.9141 32.2344 57.1641 32.2344H66.5391ZM55.0078 11.9844C55.0078 11.7031 55.1484 11.5625 55.4297 11.5625H63.1641C63.4453 11.625 63.6016 11.7656 63.6328 11.9844V20.375H55.0078V11.9844ZM72.8203 32L77.1797 22.2969C77.3359 22.0469 77.4766 21.9219 77.6016 21.9219H80.3203C80.5391 21.9844 80.6797 22.1094 80.7422 22.2969L85.2891 32H88.9922L85.1953 24.1719C84.3516 22.3594 83.6641 21.25 83.1328 20.8438C82.8516 20.625 82.5547 20.4688 82.2422 20.375C82.6797 20.0938 83.0547 19.6875 83.3672 19.1562C83.7109 18.625 84.1016 17.8438 84.5391 16.8125V16.7656L88.0078 9.03125H84.5859L80.4141 18.6406C80.2891 18.8906 80.1484 19.0156 79.9922 19.0156H78.1641C77.9453 18.9531 77.8047 18.8281 77.7422 18.6406L73.6172 9.03125H70.0547L73.4297 16.7656C74.2422 18.6094 74.9297 19.75 75.4922 20.1875C75.5859 20.25 75.6641 20.2969 75.7266 20.3281C74.9766 20.6406 74.2891 21.3906 73.6641 22.5781C73.5078 22.8906 73.2578 23.4219 72.9141 24.1719L69.1641 32H72.8203ZM115.102 32.3281C118.133 32.3281 119.977 31.3438 120.633 29.375C120.82 28.7188 120.914 27.9531 120.914 27.0781V16.4844H111.914V19.4844H117.352V28.625C117.289 28.875 117.148 29.0156 116.93 29.0469H105.68C105.43 28.9844 105.289 28.8438 105.258 28.625V5.60938C105.32 5.35937 105.461 5.21875 105.68 5.1875H120.398V1.90625H107.367C104.305 1.90625 102.461 2.90625 101.836 4.90625C101.648 5.5625 101.555 6.29687 101.555 7.10938V27.0781C101.555 29.8281 102.633 31.4844 104.789 32.0469C105.508 32.2344 106.367 32.3281 107.367 32.3281H115.102ZM133.195 8.70312C131.164 8.73438 129.867 9.42188 129.305 10.7656L129.023 9.03125H125.977L126.023 32H129.492L129.445 12.125C129.508 11.875 129.648 11.7344 129.867 11.7031H135.914V8.70312H133.195ZM146.789 32.3281C148.852 32.3281 150.117 31.5781 150.586 30.0781C150.617 30.0156 150.633 29.9688 150.633 29.9375L150.961 32H154.008L153.961 9.03125H150.492L150.539 29.4688H142.148C141.867 29.4688 141.727 29.3281 141.727 29.0469V9.03125H138.258V27.5938C138.258 30 139.086 31.4688 140.742 32C141.43 32.2188 142.305 32.3281 143.367 32.3281H146.789ZM162.82 40.9062V32.0469L169.711 32.1406C172.305 32.1406 173.93 31.4531 174.586 30.0781C174.93 29.3594 175.102 28.4219 175.102 27.2656V13.4375C175.102 11.0312 174.273 9.5625 172.617 9.03125C171.93 8.8125 171.055 8.70312 169.992 8.70312H166.617C164.492 8.73438 163.195 9.53125 162.727 11.0938L162.398 9.03125H159.352V40.9062H162.82ZM162.82 11.9844C162.883 11.7344 163.039 11.5938 163.289 11.5625H171.164C171.414 11.625 171.555 11.7656 171.586 11.9844V28.8594C171.523 29.1094 171.383 29.25 171.164 29.2812L162.82 29.1875V11.9844ZM178.992 4.71875H180.352C180.195 6.03125 179.758 7.23437 179.039 8.32812L180.305 9.3125C181.898 7.6875 182.695 5.92187 182.695 4.01562V0.125H178.992V4.71875ZM207.68 29.4688H199.477C199.227 29.4062 199.086 29.2656 199.055 29.0469V21.7812C199.117 21.5312 199.258 21.3906 199.477 21.3594H207.68V29.4688ZM203.93 32.3281C205.992 32.3281 207.258 31.5781 207.727 30.0781C207.758 30.0156 207.773 29.9688 207.773 29.9375L208.102 32H211.195V14C211.195 11.5312 210.367 10 208.711 9.40625C207.93 9.125 206.93 8.98438 205.711 8.98438L196.852 9.03125V11.9375L207.258 11.8906C207.539 11.8906 207.68 12.0312 207.68 12.3125V18.7812H200.977C198.383 18.7812 196.758 19.4688 196.102 20.8438C195.758 21.5625 195.586 22.5 195.586 23.6562V27.5938C195.586 30 196.414 31.4688 198.07 32C198.758 32.2188 199.633 32.3281 200.695 32.3281H203.93Z" fill="#252525"/>
<path d="M242.742 32H246.352V2.23438H242.742V15.3125H229.852V2.23438H226.242V32H229.852V18.4531H242.742V32ZM264.164 11.6094C264.414 11.6719 264.555 11.8125 264.586 12.0312V28.9531C264.555 29.2344 264.414 29.3906 264.164 29.4219H255.867C255.617 29.3594 255.477 29.2031 255.445 28.9531V12.0312C255.508 11.7812 255.648 11.6406 255.867 11.6094H264.164ZM251.93 27.2188C251.93 29.75 252.805 31.3125 254.555 31.9062C255.367 32.1875 256.383 32.3281 257.602 32.3281H262.43C265.211 32.3281 266.945 31.5469 267.633 29.9844C267.945 29.2344 268.102 28.3125 268.102 27.2188V13.7656C268.102 11.2656 267.227 9.71875 265.477 9.125C264.664 8.84375 263.648 8.70312 262.43 8.70312H257.602C254.789 8.70312 253.039 9.5 252.352 11.0938C252.07 11.8125 251.93 12.7031 251.93 13.7656V27.2188ZM281.648 32.1875C284.18 32.1875 285.742 31.4531 286.336 29.9844C286.617 29.3281 286.758 28.4844 286.758 27.4531V23.7969C286.758 21.4219 285.992 19.9375 284.461 19.3438C283.68 19.0625 282.648 18.9219 281.367 18.9219H275.836C275.586 18.8594 275.445 18.7188 275.414 18.5V12.0312C275.414 11.75 275.555 11.6094 275.836 11.6094L285.68 11.6562V8.75L277.336 8.70312C274.711 8.70312 273.07 9.40625 272.414 10.8125C272.07 11.5625 271.898 12.5312 271.898 13.7188V16.8125C271.898 19.1875 272.664 20.6719 274.195 21.2656C274.977 21.5469 276.008 21.6875 277.289 21.6875H282.867C283.148 21.6875 283.289 21.8281 283.289 22.1094V28.9062C283.227 29.1562 283.086 29.2969 282.867 29.3281H272.227V32.1875H277.336L276.398 36.3594H280.289C280.477 36.4219 280.586 36.5312 280.617 36.6875V38.9844C280.555 39.1719 280.445 39.2812 280.289 39.3125H275.836V41.6562H279.023C281.773 41.5938 283.164 40.3438 283.195 37.9062V37.2969C283.195 35.5156 282.227 34.5312 280.289 34.3438C280.008 34.3125 279.727 34.2969 279.445 34.2969H278.836L279.258 32.1875H281.648ZM302.32 29.0469C302.32 29.3281 302.18 29.4688 301.898 29.4688H293.977C293.727 29.4062 293.586 29.2656 293.555 29.0469V12.1719C293.617 11.9219 293.758 11.7812 293.977 11.75L302.32 11.8438V29.0469ZM301.898 38.3281H290.883V41.2344H300.164C302.977 41.2344 304.727 40.4375 305.414 38.8438C305.695 38.125 305.836 37.2344 305.836 36.1719V9.03125L295.477 8.89062C292.883 8.85938 291.258 9.53125 290.602 10.9062C290.258 11.625 290.086 12.5625 290.086 13.7188V27.5938C290.086 30 290.914 31.4688 292.57 32C293.258 32.2188 294.133 32.3281 295.195 32.3281H298.57C300.602 32.2969 301.852 31.5781 302.32 30.1719V37.9062C302.258 38.1562 302.117 38.2969 301.898 38.3281ZM325.242 32.2344V29.3281H314.133C313.883 29.2656 313.742 29.125 313.711 28.9062V22.9531H325.805V13.625C325.805 11.2188 325.039 9.71875 323.508 9.125C322.727 8.84375 321.695 8.70312 320.414 8.70312H315.398C312.93 8.70312 311.383 9.32812 310.758 10.5781C310.383 11.2969 310.195 12.3125 310.195 13.625V27.1719C310.195 29.6719 311.055 31.2188 312.773 31.8125C313.586 32.0938 314.617 32.2344 315.867 32.2344H325.242ZM313.711 11.9844C313.711 11.7031 313.852 11.5625 314.133 11.5625H321.867C322.148 11.625 322.305 11.7656 322.336 11.9844V20.375H313.711V11.9844ZM334.336 32V0.359375H330.867V32H334.336ZM351.82 0.359375V8.9375L344.977 8.89062C342.383 8.85938 340.758 9.53125 340.102 10.9062C339.758 11.625 339.586 12.5625 339.586 13.7188V27.5938C339.586 30 340.414 31.4688 342.07 32C342.758 32.2188 343.633 32.3281 344.695 32.3281H348.07C350.227 32.2969 351.508 31.4844 351.914 29.8906L352.289 32H355.336V0.359375H351.82ZM351.82 29.0469C351.82 29.3281 351.68 29.4688 351.398 29.4688H343.477C343.227 29.4062 343.086 29.2656 343.055 29.0469V12.125C343.117 11.875 343.258 11.7344 343.477 11.7031L351.82 11.7969V29.0469ZM364.57 32V9.03125H361.102V32H364.57ZM364.57 4.29688V0.828125H361.102V4.29688H364.57ZM377.555 8.70312C375.523 8.73438 374.227 9.42188 373.664 10.7656L373.383 9.03125H370.336L370.383 32H373.852L373.805 11.9844C373.867 11.7344 374.008 11.5938 374.227 11.5625H382.148C382.398 11.625 382.539 11.7656 382.57 11.9844V32H386.086V13.4375C386.086 11.0312 385.258 9.5625 383.602 9.03125C382.914 8.8125 382.039 8.70312 380.977 8.70312H377.555ZM394.945 32V9.03125H391.477V32H394.945ZM394.945 4.29688V0.828125H391.477V4.29688H394.945ZM413.555 29.2812H403.055C402.711 29.2812 402.617 29.0938 402.773 28.7188C402.805 28.6562 402.836 28.6094 402.867 28.5781L413.648 12.4531C413.586 10.2031 412.367 9.0625 409.992 9.03125H399.68V11.75H409.477C409.789 11.75 409.914 11.875 409.852 12.125C409.82 12.2188 409.789 12.2969 409.758 12.3594L398.742 28.9531C398.805 30.9531 399.977 31.9688 402.258 32H413.555V29.2812Z" fill="#D21649"/>
</svg>
