<svg width="34" height="35" viewBox="0 0 34 35" fill="none" xmlns="http://www.w3.org/2000/svg">
<g clip-path="url(#clip0_3_418)">
<path d="M23.4547 17.7318C24.7818 16.2535 25.5967 14.3066 25.5967 12.1688C25.5967 7.56674 21.8522 3.82225 17.2501 3.82225C12.648 3.82225 8.9035 7.56674 8.9035 12.1688C8.9035 16.7709 12.648 20.5154 17.2501 20.5154C18.8725 20.5154 20.3832 20.0428 21.6665 19.2384C26.2049 20.9484 29.3297 25.1019 29.7272 29.9053H4.77402C5.04424 26.6721 6.56124 23.6569 9.0287 21.5055C9.46376 21.1268 9.50863 20.4685 9.1299 20.0334C8.75222 19.5994 8.09284 19.5535 7.65777 19.9322C4.47041 22.7095 2.64355 26.7243 2.64355 30.9487C2.64355 31.5256 3.11096 31.992 3.68688 31.992H30.8133C31.3903 31.992 31.8566 31.5256 31.8566 30.9487C31.8566 25.225 28.5389 20.1138 23.4547 17.7318ZM10.9901 12.1688C10.9901 8.71648 13.7977 5.9089 17.2501 5.9089C20.7024 5.9089 23.51 8.71648 23.51 12.1688C23.51 15.6212 20.7024 18.4288 17.2501 18.4288C13.7977 18.4288 10.9901 15.6212 10.9901 12.1688Z" fill="#ADADAD"/>
</g>
<defs>
<clipPath id="clip0_3_418">
<rect width="33.3864" height="33.3864" fill="white" transform="translate(0.556885 0.692276)"/>
</clipPath>
</defs>
</svg>
